<svg xmlns="http://www.w3.org/2000/svg" viewBox="0 0 1039.7 1039.7" role="img" aria-label="ColdenJames"><title>ColdenJames</title><defs><clipPath id="cj-icon-top"><rect x="0" y="0" width="1039.7" height="519.8"/></clipPath></defs><rect width="1039.7" height="1039.7" fill="#F4EFE6"/><path fill="#3F7FC0" d="M542.8 880.8Q471.8 880.8 414.8 858.3Q357.8 835.8 317.8 791.3Q277.8 746.8 255.8 680.3Q233.8 613.8 233.8 524.8Q233.8 436.8 255.8 368.3Q277.8 299.8 317.8 253.3Q357.8 206.8 414.8 182.8Q471.8 158.8 542.8 158.8Q639.8 158.8 702.8 198.3Q765.8 237.8 803.8 322.8L672.8 390.8Q658.8 346.8 629.3 320.3Q599.8 293.8 542.8 293.8Q475.8 293.8 435.3 337.3Q394.8 380.8 394.8 463.8V575.8Q394.8 658.8 435.3 702.3Q475.8 745.8 542.8 745.8Q598.8 745.8 632.3 715.3Q665.8 684.8 681.8 641.8L805.8 713.8Q766.8 793.8 703.3 837.3Q639.8 880.8 542.8 880.8Z"/><path fill="#C4501B" clip-path="url(#cj-icon-top)" d="M542.8 880.8Q471.8 880.8 414.8 858.3Q357.8 835.8 317.8 791.3Q277.8 746.8 255.8 680.3Q233.8 613.8 233.8 524.8Q233.8 436.8 255.8 368.3Q277.8 299.8 317.8 253.3Q357.8 206.8 414.8 182.8Q471.8 158.8 542.8 158.8Q639.8 158.8 702.8 198.3Q765.8 237.8 803.8 322.8L672.8 390.8Q658.8 346.8 629.3 320.3Q599.8 293.8 542.8 293.8Q475.8 293.8 435.3 337.3Q394.8 380.8 394.8 463.8V575.8Q394.8 658.8 435.3 702.3Q475.8 745.8 542.8 745.8Q598.8 745.8 632.3 715.3Q665.8 684.8 681.8 641.8L805.8 713.8Q766.8 793.8 703.3 837.3Q639.8 880.8 542.8 880.8Z"/></svg>
